<svg xmlns="http://www.w3.org/2000/svg" xml:space="preserve" style="fill-rule:evenodd;clip-rule:evenodd;stroke-linejoin:round;stroke-miterlimit:2" viewBox="0 0 50 50" width="50px" height="50px"><path d="M37.468 17.123C37.468 38.173 25 45.346 25 45.346s-12.468-7.202-12.468-28.223c0-6.885 5.581-12.468 12.468-12.468 6.885 0 12.468 5.582 12.468 12.468Z" style="fill:#fff;fill-rule:nonzero" transform="matrix(1 0 0 .72558 0 12.4438)"/><path d="M208 48c0-26.332 21.668-48 48-48s48 21.668 48 48-21.668 48-48 48-48-21.668-48-48Zm40 272v96h-64V237.3L153 276c-11.1 13.8-31.2 16-45 5s-16-31.2-5-45l57.7-72c18.2-22.7 45.8-36 74.9-36h40.7c29.1 0 56.7 13.2 74.9 36l57.8 72c11 13.8 8.8 33.9-5 45-13.8 11.1-33.9 8.8-45-5l-31-38.7V416h-64v-96h-16Zm136 192H128c-17.7 0-32-14.3-32-32s14.3-32 32-32h256c17.7 0 32 14.3 32 32s-14.3 32-32 32ZM64 96l25.4 7.3c3.9 1.1 6.6 4.7 6.6 8.7 0 4-2.7 7.6-6.6 8.7L64 128l-7.3 25.4c-1.1 3.9-4.7 6.6-8.7 6.6-4 0-7.6-2.7-8.7-6.6L32 128l-25.4-7.3C2.7 119.6 0 116.1 0 112s2.7-7.6 6.6-8.7L32 96l7.3-25.4c1.1-3.9 4.6-6.6 8.7-6.6s7.6 2.7 8.7 6.6L64 96ZM472.7 6.6 480 32l25.4 7.3c3.9 1.1 6.6 4.7 6.6 8.7 0 4-2.7 7.6-6.6 8.7L480 64l-7.3 25.4c-1.1 3.9-4.7 6.6-8.7 6.6-4 0-7.6-2.7-8.7-6.6L448 64l-25.4-7.3c-3.9-1.1-6.6-4.7-6.6-8.7 0-4 2.7-7.6 6.6-8.7L448 32l7.3-25.4c1.1-3.9 4.6-6.6 8.7-6.6s7.6 2.7 8.7 6.6Z" style="fill-rule:nonzero" transform="translate(16.5485 20.5619) scale(.03301)"/></svg>
